<svg width="8" height="11" viewBox="0 0 8 11" fill="none" xmlns="http://www.w3.org/2000/svg">
<path d="M4 10.1293C3.30445 10.1293 2.712 9.93999 2.22266 9.56143C1.73331 9.17981 1.35938 8.62737 1.10085 7.90412C0.84233 7.17779 0.713068 6.30066 0.713068 5.27273C0.713068 4.25095 0.84233 3.37843 1.10085 2.65518C1.36245 1.92886 1.73793 1.37488 2.22727 0.993252C2.7197 0.608546 3.31061 0.416193 4 0.416193C4.68939 0.416193 5.27876 0.608546 5.76811 0.993252C6.26054 1.37488 6.63601 1.92886 6.89453 2.65518C7.15613 3.37843 7.28693 4.25095 7.28693 5.27273C7.28693 6.30066 7.15767 7.17779 6.89915 7.90412C6.64062 8.62737 6.26669 9.17981 5.77734 9.56143C5.288 9.93999 4.69555 10.1293 4 10.1293ZM4 9.11364C4.68939 9.11364 5.22491 8.78125 5.60653 8.11648C5.98816 7.4517 6.17898 6.50379 6.17898 5.27273C6.17898 4.45407 6.09126 3.75698 5.91584 3.18146C5.74349 2.60594 5.4942 2.16738 5.16797 1.86577C4.84482 1.56416 4.45549 1.41335 4 1.41335C3.31676 1.41335 2.78279 1.75035 2.39808 2.42436C2.01338 3.09529 1.82102 4.04474 1.82102 5.27273C1.82102 6.09138 1.9072 6.78693 2.07955 7.35938C2.25189 7.93182 2.49964 8.36731 2.8228 8.66584C3.14903 8.96437 3.54143 9.11364 4 9.11364Z" fill="#35B8BE"/>
</svg>
